<?xml version="1.0" encoding="UTF-8"?>
<svg viewBox="0 0 45 14" version="1.1" xmlns="http://www.w3.org/2000/svg" xmlns:xlink="http://www.w3.org/1999/xlink" id='logo-bizum-bw'>
  <path d="M22.246 4.66c-.386 0-.696.303-.696.67v5.023c0 .377.31.68.696.68s.696-.304.696-.68V5.33c0-.366-.31-.67-.696-.67h0zm0-2.506c-.435 0-.784.34-.784.766s.35.778.784.778a.78.78 0 0 0 .783-.778c0-.425-.348-.766-.783-.766h0zm6.785 3.162c0-.424-.348-.583-.646-.583h-3.442c-.336 0-.6.256-.6.583s.274.597.6.597h2.26l-2.932 4c-.088.12-.137.268-.137.4 0 .413.348.657.633.657h3.654c.334 0 .607-.268.607-.596s-.26-.597-.607-.597h-2.46l2.87-3.903a.85.85 0 0 0 .198-.548h0zM18.882 8.48c0 .827-.374 1.338-1.206 1.338-.845 0-1.205-.51-1.205-1.338V5.913h1.264c1.02 0 1.147.548 1.147 1.156v1.41zm1.38-1.435c0-1.41-.762-2.31-2.516-2.31H16.47V2.836c0-.38-.31-.682-.684-.682-.385 0-.695.303-.695.682V8.48c0 1.398.77 2.554 2.584 2.554 1.802 0 2.586-1.155 2.586-2.554V7.045zM34.453 4.66c-.385 0-.696.303-.696.682V8.48c0 .827-.373 1.338-1.206 1.338-.845 0-1.205-.51-1.205-1.338V5.342c0-.378-.31-.682-.684-.682-.385 0-.696.303-.696.682V8.48c0 1.398.77 2.554 2.584 2.554 1.802 0 2.587-1.155 2.587-2.554V5.342c0-.378-.31-.682-.684-.682h0zM45 7.215c0-1.398-.66-2.555-2.475-2.555-.81 0-1.39.234-1.783.617-.394-.383-.975-.617-1.788-.617-1.802 0-2.475 1.156-2.475 2.555l-.001 3.138c0 .377.31.68.684.68.385 0 .696-.304.696-.68V7.215c0-.827.263-1.338 1.096-1.338.845 0 1.096.51 1.096 1.338v3.138c0 .377.31.68.684.68.385 0 .696-.304.696-.68V7.215c0-.827.263-1.338 1.096-1.338.845 0 1.096.51 1.096 1.338v3.138c0 .377.3.68.684.68.385 0 .696-.304.696-.68V7.215zM2.45 4.668c.486.346 1.166.24 1.52-.237l1.28-1.722a1.05 1.05 0 0 0-.241-1.488 1.1 1.1 0 0 0-1.519.236L2.21 3.18a1.05 1.05 0 0 0 .242 1.488h0zm5.84-2.43c-.486-.347-1.166-.24-1.52.235l-5.12 6.895a1.05 1.05 0 0 0 .24 1.487c.487.346 1.167.24 1.52-.236L8.53 3.724c.355-.476.246-1.14-.24-1.487h0zM1.97 1.69a1.05 1.05 0 0 0-.24-1.488C1.24-.142.56-.036.208.438a1.05 1.05 0 0 0 .241 1.488c.485.346 1.167.24 1.52-.235h0zm7.767 9.473c-.486-.345-1.167-.24-1.52.236a1.05 1.05 0 0 0 .24 1.488c.487.346 1.167.24 1.52-.236a1.05 1.05 0 0 0-.241-1.487h0zm-2.002-2.74c-.486-.345-1.167-.24-1.52.236l-1.28 1.724a1.05 1.05 0 0 0 .24 1.487c.487.347 1.168.24 1.52-.236l1.28-1.724a1.05 1.05 0 0 0-.242-1.488h0z" fill-rule="evenodd" />
</svg>