<?xml version="1.0" encoding="UTF-8"?>
<svg viewBox="0 0 40 25" version="1.1" xmlns="http://www.w3.org/2000/svg" xmlns:xlink="http://www.w3.org/1999/xlink" id="logo-gift-card-es-bw">
  <path d="M8.218 13.417c.084.583.168 1.083.335 1.583l2.096 7.5.755 2.5h-9.81C.503 25 0 24.5 0 23.5v-7.833c0-.25 0-.417.252-.5l4.025-1.583c.084 0 .168 0 .252-.083l-1.845 2.417c-.168.167-.252.5-.252.75 0 1.417.587 2.667 1.1 4C5.2 18.5 8.134 13.5 8.218 13.417zm25.325 2.833c3.522.25 5.702 4.333 4.11 8.667h0V25H36.3c1.845-3.583.755-7.583-2.348-8.5-.084-.083-.252-.167-.42-.25zM40 2.917v6.917c-.42-.333-.922-.667-1.426-1C36.06 9.167 34.298 10 34.298 10c-4.193 2-5.535 6.5-3.27 8.917 0 .167.168.25.252.417-2.85-1.833-2.767-6.5.755-9.5 0 0 1.51-1.25 3.774-2.167-.84-.167-1.845-.333-2.767-.333h0-.335c-1.845 1.5-2.935 3-2.935 3-2.6 3.833-1.51 8.417 1.845 9.417h.084c.084.083.252.083.335.167-3.438-.167-5.618-4.25-4.11-8.583 0 0 .67-1.75 2.013-3.583-.84.25-1.677.667-2.432 1.083-.84 2.167-1.006 4-1.006 4-.335 4.5 2.85 7.917 6.205 7.25h.587c-3.103 1.5-7.044-.917-7.883-5.417 0 0-.335-1.75-.084-4.083-.67.75-1.258 1.5-1.76 2.417.335 2.167 1.1 3.75 1.1 3.75 2.013 4.083 6.54 5.5 9.14 3.083h.084c.084 0 .252-.083.335-.167-1.93 2.917-6.625 2.75-9.644-.667 0 0-1.174-1.5-2.013-3.417-.252.75-.335 1.667-.335 2.5h0v.333a25.91 25.91 0 0 0 2.767 2.5c3.774 2.5 8.218 1.5 9.392-1.583.168-.083.252-.25.335-.417-.335 3.333-4.36 5.333-8.637 3.917 0 0-1.593-.583-3.354-1.833.252.917.67 1.833 1.174 2.667 2.013.75 3.7.917 3.7.917 4.528.333 7.966-2.833 7.296-6.167h0V18c1.174 2.5-.252 5.5-3.354 7h0H16.1c-.335 0-.42-.083-.503-.333l-2.18-6.5-2.013-5.583v-.25c.587.417 1.1.917 1.677 1.333l4.444 3.25 1.51 1.167L18.868 15c0-1.75-.503-1.917-1.426-2.5l-3.606-2.167-.503-.25c1.174-.417 2.432-.75 3.354-1.667-.168.333-.335.667-.587.917s-.922.667-.922.667.42 0 .587-.083l6.71-1.833 14.59-4.333c.922-.333 1.93-.583 2.935-.833h0zm-5.535 14c2.348 1.667 2.516 5.25.42 8.083h0-1.51c2.516-2.167 3.187-5.5 1.426-7.583-.084-.167-.252-.333-.335-.5zm-1.677-.75C35.472 15 38.658 16.667 40 20h0v3.417c0 .833-.335 1.333-.922 1.5l.252-1.417c.335-4.417-2.767-7.75-6.038-7.25-.168-.083-.252-.083-.42-.083h0zm3.606-5.583s1.51-.25 3.606-.083h0v1.583c-1.006-.25-1.76-.333-1.76-.333-4.612-.333-8.05 2.833-7.296 6.25h0v.5c-1.51-3.083.922-7.083 5.45-7.917zM31.866 16.5c1.677-2.333 5.283-2.5 8.134-.333h0v1.5c-2.18-2.583-5.618-3.25-7.715-1.333-.168 0-.252.083-.42.167zm-.84.917c.335-3.333 4.36-5.417 8.637-3.917a.84.84 0 0 0 .335.083h0v1.333c-3.522-1.917-7.463-.917-8.637 2-.168.167-.252.333-.335.5zM3.522 0l3.354 9.167c-1.76-.25-3.438-.667-5.283-.25 0 .25.084.417.084.583v1.333c-.503.083-1.006.25-1.593.417V1.583C.084.5.587 0 1.677 0h1.845zm31.53 0l-3.27 1-8.47 2.75-7.38 2.583c-.252.083-.42.083-.587-.083a10.11 10.11 0 0 0-1.342-1.333c-1.426.75-2.432 2.167-3.774 3.25L8.134 0h26.918z" />
</svg>