<?xml version="1.0" encoding="UTF-8"?>
<svg viewBox="0 0 50 14" version="1.1" xmlns="http://www.w3.org/2000/svg" xmlns:xlink="http://www.w3.org/1999/xlink" id="logo-paack-bw">
  <path d="M12.182 7.174c.27 4.66.28 4.713-4.02 6.875-.295-4.43.41-5.615 4.02-6.875zm9.43-3.334c1.595-.013 2.872 1.11 3.006 2.643.146 1.67-.92 3.046-2.557 3.315-.776.128-1.47-.174-2.237-.507l.007 1.538c.03.47-.107.67-.624.67-.56 0-.59-.292-.586-.715l.016-4.014c.07-1.697 1.346-2.916 2.973-2.93zM7.983 9.31c-2.686 2.52-4.686 2.537-7.983.07 4.102-2.71 3.948-2.52 7.983-.07zm35.32-5.038c.215.13.592.27.34.596-.194.253-.377.733-.876.448-.527-.302-1.055-.445-1.66-.213-.983.374-1.447 1.332-1.093 2.32a1.79 1.79 0 0 0 2.325 1.094c.128-.046.256-.103.368-.18.496-.336.688.13.898.38.34.41-.133.533-.348.658-.952.556-1.94.622-2.93.085-1.052-.576-1.582-1.472-1.592-2.67.01-1.167.533-2.056 1.54-2.6 1-.54 2.036-.512 3.026.084zm-10.774.875c.737-1.083 2.087-1.574 3.35-1.218 1.218.343 2.058 1.462 2.127 2.852l.003 1.132.008.72c-.003 1.162-.008 1.175-1.15.793-.32-.108-.505.103-.747.187-1.278.446-2.63.087-3.44-.92-.832-1.034-.894-2.458-.154-3.548zm-4.975-1.232c1.757-.433 3.407.628 3.736 2.438.1.5.066 1.02.095 1.53-.007 0-.015.002-.023.002h0v.772c-.008.95-.097.92-1.286.72-.2-.033-.433.154-.655.23-1.685.587-3.456-.267-3.955-1.907-.492-1.616.486-3.393 2.087-3.787zm17.574-1.45c.504.002.54.286.537.665l-.003 3.065c1.337-.673 1.908-2.57 3.876-1.872l-1.598 1.5c-.417.343-.387.607-.07.998L50 9.58c-.963.305-1.587.082-2.02-.696-.166-.297-.38-.58-.628-.81-.292-.274-.363-.988-.906-.752-.525.228-.89.724-.8 1.42.038.282.153.66-.135.86-.167.117-.456.1-.688.074-.348-.025-.297-.32-.297-.546l-.008-6.073c-.003-.445.164-.596.607-.594zm-23.513 2.5c-.983.015-1.802.87-1.79 1.872a1.82 1.82 0 0 0 1.854 1.79c1-.01 1.84-.87 1.8-1.85s-.902-1.826-1.876-1.813zm6.765 0a1.88 1.88 0 0 0-1.879 1.794 1.85 1.85 0 0 0 1.787 1.869 1.82 1.82 0 0 0 1.867-1.774c.025-.988-.796-1.86-1.775-1.89zm6.642.002c-.99.005-1.815.848-1.805 1.848a1.82 1.82 0 0 0 1.823 1.813 1.83 1.83 0 0 0 1.83-1.823c.01-.942-.894-1.84-1.848-1.838zM8.127.477l-.036 2.78c-.04.752-.374 1.426-.988 1.848-.95.65-1.964 1.21-3.128 1.913l.005-3.134c.028-1.027.474-1.864 1.332-2.43L7.527.15c.42-.254.614-.207.6.328zm8.126 4.066c-2.727 2.514-4.36 2.535-7.99.06 4.033-2.625 4.022-2.58 7.99-.06z" />
</svg>