<?xml version="1.0" encoding="UTF-8"?>
<svg viewBox="0 0 51 18" version="1.1" xmlns="http://www.w3.org/2000/svg" xmlns:xlink="http://www.w3.org/1999/xlink" id="logo-club-card-es-bw">
  <path d="M28.456 8.908c.494 0 1.172.147 1.51.292l-.496 2.073a5.44 5.44 0 0 0-1.355-.186c-.64 0-.807.36-1.173 1.888-.182.797-.313 1.874-.365 2.82.86 0 1.575-.094 2.2-.28l-.403 2.18c-.35.147-1.158.305-1.797.305-1.953-.002-2.318-.985-2.318-2.408 0-.783.118-1.674.314-2.63.56-2.83 1.537-4.054 3.882-4.054zm-15.24.155l-.847 4.653-.274 1.913v.2c.104.053.235.08.365.08.612 0 .755-.346.963-1.502l.965-5.342h2.37l-.992 5.4c-.508 2.79-1.303 3.52-3.517 3.52-1.622.002-2.47-.744-2.47-2.325 0-.452.066-.983.222-1.86l.847-4.745h2.37zm-9.02-.16c.494 0 1.172.147 1.51.292l-.496 2.073c-.235-.068-.782-.186-1.355-.186-.64 0-.807.36-1.173 1.888-.182.797-.313 1.874-.365 2.817.86 0 1.575-.094 2.2-.28l-.403 2.18c-.35.147-1.16.305-1.797.305C.365 17.993 0 17.01 0 15.587c0-.783.118-1.674.314-2.63.56-2.83 1.537-4.054 3.882-4.054zm35.8.06c1.718 0 2.318.69 2.318 1.94 0 .4 0 .506-.092 1.103-.195 1.316-.573 2.152-1.42 2.55l.69 3.244-2.434.158-.456-2.95-.313.012-.494 2.82h-2.37l1.58-8.772c.7-.066 2.224-.106 2.992-.106zM34.914 9l.26 8.812-2.37.158.027-1.49h-1.537l-.43 1.37h-2.37l3.44-8.73 2.98-.12zm11.28-.025c1.9 0 2.577.586 2.577 2.327 0 .783-.13 1.727-.313 2.698-.548 2.817-1.382 3.894-3.712 3.894-1.29 0-2.318-.028-2.838-.068L43.47 9.07l2.722-.106zM20.38 8.96c1.797 0 2.303.638 2.303 1.623 0 .213-.013.397-.09.797-.118.625-.47 1.342-1.303 1.674v.026c.508.252.78.704.78 1.303 0 .305-.013.518-.09.97-.247 1.488-.952 2.525-3.268 2.525-1.29 0-2.226-.028-2.75-.068l1.567-8.744 2.85-.106zm-11.694.102L7.5 15.668h1.745l-.56 2.167H4.74l1.58-8.772h2.37zM19.47 14.17c-.195 0-.415.013-.56.04l-.328 1.674a2.83 2.83 0 0 0 .378.013c.56 0 .82-.053.913-1.7a4.14 4.14 0 0 0-.403-.026zm26.594-3.198c-.3 0-.4.013-.56.04l-.915 4.85h.365c.64 0 .795-.397 1.12-1.926a22.96 22.96 0 0 0 .392-2.924c-.143-.026-.3-.04-.403-.04zm-13.09.302h-.025l-1.056 3.323h1l.09-3.323zm6.588-.303c-.168 0-.456.026-.546.053l-.405 2.273.403-.013c.482-.013.677-.08.82-.797a8.31 8.31 0 0 0 .17-1.489 4.21 4.21 0 0 0-.442-.026zm-19.506-.15c-.197 0-.417.013-.56.04l-.3 1.648h.313c.56 0 .793-.026.938-1.66a3.87 3.87 0 0 0-.39-.026zM26.728 0a3.36 3.36 0 0 1 .915.134c-.72.28-1.204.675-1.204.675-1.027.876-1.074 2.23-.217 2.78-.034-.036-.06-.078-.082-.124-.686-.747-.282-2.047.94-2.632 0 0 .573-.262 1.345-.35a3.26 3.26 0 0 1 .664.526c-.768-.112-1.392-.005-1.392-.005-1.333.254-2.064 1.4-1.61 2.296-.007-.028-.008-.058-.008-.087h0l.003-.054c-.2-.983.8-1.91 2.16-1.817 0 0 .637.058 1.357.363.123.228.222.473.287.73l.027.115c-.615-.487-1.226-.708-1.226-.708-1.257-.426-2.454.176-2.557 1.145.024-.056.055-.106.094-.15.363-.894 1.668-1.164 2.764-.44a4.87 4.87 0 0 0 .997.988c-.013.262-.06.518-.134.765-.284-.7-.684-1.173-.684-1.173-.874-.988-2.217-1.052-2.8-.264.04-.023.08-.04.123-.056.768-.635 2.066-.234 2.654.95 0 0 .36.808.434 1.55h0L34.07.07c.018-.02.047-.036.074-.036h0l.936.002c.03 0 .057.013.076.035.013.018.022.046.022.068h0l-.002.02-.71 3.835C34.9 3.523 37.57.07 37.57.07c.018-.02.045-.035.072-.035h0l.89-.002c.03 0 .06.012.077.035s.025.058.018.086h0l-.666 3.5c.15-.336.372-.648.67-.917.598-.546 1.328-.76 2.053-.604h0l.025.008.067.028c.212.08.36.165.51.295h0l.05-.247c.012-.06.066-.097.126-.097h.667c.04 0 .076.012.1.04.02.02.03.05.03.082h0l-.145.84-.6 3.122c-.012.06-.066.084-.128.084h0-.662c-.04 0-.076.002-.1-.026s-.03-.053-.03-.08h0l.002-.023.03-.142c-.54.327-1.088.454-1.6.36-.585-.114-1.13-.676-1.24-1.278-.03-.163.025-.323.03-.483 0 0 .003-.048 0-.107h0l-.3 1.705a.1.1 0 0 1-.094.076h0-.814c-.03 0-.057-.016-.076-.04-.012-.016-.02-.038-.02-.058h0l.003-.023.75-4.046c-.415.475-3.214 4.13-3.214 4.13-.018.02-.044.033-.072.033h0-.825c-.03 0-.057-.012-.076-.036-.015-.016-.022-.038-.022-.06l-.003-.016.745-4.052-3.875 4.13c-.02.02-.05.036-.08.035h0-1.054c-.04 0-.072-.023-.087-.056a.1.1 0 0 1 .005-.092h0V6.14l.003-.005.096-.157a1.6 1.6 0 0 0 .151-.416c.097-.614-.001-1.148-.03-1.29l-.008-.036c-.252-1.277-1.375-1.992-2.278-1.606h.03a.58.58 0 0 1 .123.013c.978-.152 1.878.825 1.785 2.128 0 0-.055.618-.363 1.318a3.34 3.34 0 0 1-.706.266l-.118.025c.494-.602.716-1.197.716-1.197.445-1.263-.207-2.462-1.232-2.515a.66.66 0 0 1 .123.063c.99.302 1.308 1.633.543 2.746 0 0-.372.516-1.002.975-.3-.015-.598-.07-.884-.165.73-.28 1.224-.68 1.224-.68 1.014-.863 1.073-2.195.25-2.758.037.045.066.096.09.15.63.754.217 2-.982 2.584 0 0-.568.257-1.33.348a3.24 3.24 0 0 1-.595-.485c.736.097 1.325-.003 1.325-.003 1.318-.25 2.046-1.372 1.624-2.264h0l.002.036c0 .033-.003.066-.008.097.192.976-.812 1.9-2.16 1.796 0 0-.592-.053-1.278-.328a3.18 3.18 0 0 1-.303-.754l-.015-.064c.588.444 1.148.647 1.148.647 1.26.427 2.454-.175 2.56-1.14-.022.048-.052.092-.087.132-.356.905-1.67 1.183-2.77.452 0 0-.572-.434-1-.943h0l-.582 3.1c-.012.06-.064.084-.128.084h0l-.662-.002c-.04 0-.08-.008-.104-.038-.018-.023-.025-.04-.025-.068h0l.003-.023.027-.142c-.54.327-1.088.454-1.6.36-.587-.114-1.13-.675-1.242-1.278-.03-.162-.042-.5-.045-.5h0l-.296 1.603c-.012.063-.066.086-.128.086h0-.74c-.04 0-.074.002-.1-.026s-.035-.068-.03-.106h0l.736-3.94c.012-.06.066-.102.128-.102h0l.74-.002c.04 0 .076.018.1.046s.035.064.03.102h0l-.306 1.603.013-.025a2.65 2.65 0 0 1 .743-1.105c.595-.546 1.33-.77 2.053-.6h0l.096.03a1.76 1.76 0 0 1 .479.274c.025-.15.06-.226.06-.226.032-.066.08-.097.143-.097h.667c.04 0 .077.01.106.036.022.02.04.06.047.086a5.31 5.31 0 0 0 .677 1.229c.896 1.01 2.283 1.054 2.84.205a.61.61 0 0 1-.094.061h0l-.015.01c-.765.694-2.103.302-2.705-.907 0 0-.25-.533-.348-1.257a3.26 3.26 0 0 1 .568-.698c-.104.734 0 1.324 0 1.324.257 1.303 1.42 2.02 2.333 1.58a.54.54 0 0 1-.103.008l-.062-.003c-.992.186-1.922-.798-1.826-2.123 0 0 .054-.595.346-1.28.23-.122.476-.216.735-.284-.454.577-.66 1.126-.66 1.126-.442 1.26.207 2.457 1.227 2.513-.032-.015-.064-.033-.092-.05h0l-.012-.007c-.997-.303-1.32-1.636-.553-2.753 0 0 .35-.488.952-.937zM6.872.023c.03 0 .057.012.076.035.013.016.022.04.022.063h0l-.003.02-.7 3.835C6.69 3.505 9.39.06 9.39.06c.02-.02.045-.035.074-.035h.87c.03.002.057.015.076.036s.027.056.018.084h0L9.793 3.55l.02-.035c.407-.777 1.246-1.32 2.08-1.422h0c.763-.04 1.35.242 1.7.8h0c.13.256.224.6.24.932.143-.41.397-.787.75-1.105.597-.546 1.326-.76 2.053-.604h0l.025.008.067.028c.16.068.335.143.484.274L17.52.98c.015-.06.067-.102.128-.102h.667a.13.13 0 0 1 .099.048c.025.03.035.068.024.107h0l-.975 5.17c-.012.06-.066.084-.128.084h0l-.7-.001c-.024-.002-.046-.007-.063-.026s-.03-.053-.03-.08h0l.002-.023.01-.05.018-.092c-.54.325-1.088.454-1.6.36-.585-.114-1.13-.676-1.242-1.278a2.63 2.63 0 0 1-.04-.483c-.024.02-.054.033-.087.033h0-3.076l-.005.036c0 .046.015.106.037.175h0l.013.045a.93.93 0 0 0 .894.562c.397-.007.762-.193 1.088-.55.024-.028.06-.043.096-.043h.686c.044 0 .086.023.11.06s.027.082.008.122c-.388.803-1.263 1.342-2.18 1.342-.637-.025-1.173-.328-1.47-.838-.148-.272-.22-.61-.215-.955h0L9.28 6.21c-.01.043-.05.074-.092.074h0-.802c-.03 0-.057-.015-.076-.036-.013-.016-.02-.038-.02-.06h0l.003-.023c.34-1.384.607-3.393.78-4.17-.415.478-3.243 4.252-3.243 4.252-.017.02-.044.036-.072.036h0-.825c-.03 0-.06-.015-.076-.036s-.024-.04-.024-.06h0l.002-.02L5.618 2l-3.8 4.245c-.018.02-.047.036-.077.036l-.852.001-.224-.001c-.037 0-.07-.03-.087-.064s-.008-.073.017-.102h0L5.956.06C5.973.038 6 .025 6.03.025h0zm37.85.858l.733.002c.037 0 .072.016.098.045.02.025.03.053.03.082h0l-.002.02-.42 2.25.955-1.123a.14.14 0 0 1 .094-.036h.857c.044 0 .082.02.106.054.024-.036.066-.056.11-.054h.414L47.912 1a.13.13 0 0 1 .128-.106h.743c.04 0 .076.016.1.045.018.023.03.053.03.082h0l-.002.02-.208 1.085.75.002c.037 0 .072.016.098.045.018.023.03.053.03.08h0v.02l-.114.638c-.01.06-.064.104-.126.104L49 3.01 48.534 3l-.6 3.18c-.01.058-.064.1-.126.102h0-.837c-.02 0-.04-.013-.06-.023h0l-.044.023-.804-.002a.13.13 0 0 1-.108-.056l-1.046-1.67-.313 1.638c-.018.054-.067.087-.124.087h0-.72c-.04 0-.074-.016-.1-.045s-.034-.063-.03-.1l.545-3.178-.108.012a1.04 1.04 0 0 0-.93.835h0l-.49 2.378c-.012.06-.064.1-.126.1h0-.64c-.037 0-.077-.015-.103-.043s-.037-.06-.03-.1h0l.735-3.932c.012-.06.066-.096.128-.096h.67c.04 0 .076.012.1.04s.034.068.027.102h0l-.015.092a1.89 1.89 0 0 1 .884-.285c.04 0 .077.023.103.05h0l.22-1.135a.13.13 0 0 1 .128-.106h0zm2.404 1.49L45.76 3.993l1.215 1.953.55-2.94h-.365a.13.13 0 0 1-.099-.045c-.025-.03-.034-.066-.03-.104h0zm-6.765.7c-.32-.073-.69-.003-.96.183-.47.346-.726.798-.726 1.267a1.49 1.49 0 0 0 .022.226c.057.216.177.444.377.58.2.12.46.167.832.106.486-.114.97-.607 1.133-1.12.03-.09.04-.19.037-.294 0-.186-.042-.374-.128-.524a.88.88 0 0 0-.587-.422zm-24.05-.005c-.323-.073-.69-.003-.96.183-.47.346-.74.798-.74 1.267a.94.94 0 0 0 .024.228c.047.224.178.445.378.58.188.12.48.168.854.096.484-.114.97-.592 1.1-1.113a1.09 1.09 0 0 0 .042-.282.98.98 0 0 0-.133-.529c-.168-.27-.392-.388-.573-.43zm5.29.002c-.32-.073-.69-.003-.96.183-.47.346-.726.798-.726 1.267a.78.78 0 0 0 .025.226c.062.223.173.444.373.58.2.12.51.16.873.094.484-.117.94-.594 1.09-1.108.03-.09.044-.193.044-.294a1.06 1.06 0 0 0-.133-.524c-.155-.274-.403-.38-.587-.422zm-9.648-.016l-.14.005c-.366.05-.792.277-.992.65l1.992.003c-.015-.14-.09-.285-.25-.442-.173-.145-.353-.24-.75-.213zM19.528.876c.037.002.074.02.098.05a.12.12 0 0 1 .029.102h0l-.16.846c-.01.06-.064.12-.126.122h0-.74c-.04 0-.076-.018-.1-.048s-.035-.086-.027-.122h0l.156-.84a.13.13 0 0 1 .126-.107h0zM49.6.858a.5.5 0 1 1 0 1 .5.5 0 1 1 0-1zm0 .09c-.226 0-.41.18-.41.41a.41.41 0 0 0 .409.413.41.41 0 0 0 .41-.413c0-.232-.183-.41-.4-.41zm.244.303c0 .1-.072.13-.1.144l.1.234h-.122l-.09-.216H49.5l.002.216h-.115v-.54h.25c.03 0 .205 0 .205.16z" />
</svg>